# xmcd
#
# Track frame offsets: 
#        150
#        20488
#        37148
#        51955
#        82617
#        99165
#        111220
#        129782
#        153798
#        179479
#        195233
#
# Disc length: 2757 seconds
#
# Revision: 0
# Processed by: cddbd v1.5.2PL0 Copyright (c) Steve Scherf et al.
# Submitted via: ExactAudioCopy v1.3
#
DISCID=790ac30b
DTITLE=Jeff Fetterman - Bottle Full of Blues
DYEAR=2015
DGENRE=Blues Rock, British Blues
TTITLE0=Paradise
TTITLE1=Out Of Time
TTITLE2=Southbound
TTITLE3=Bottle Full Of Blues
TTITLE4=Funky Candy
TTITLE5=Devil's Shuffle
TTITLE6=Talk To Me
TTITLE7=Down and Out
TTITLE8=Wash My Blues Away
TTITLE9=Angel Blue
TTITLE10=T-Bone and The Ghost
EXTD=
EXTT0=
EXTT1=
EXTT2=
EXTT3=
EXTT4=
EXTT5=
EXTT6=
EXTT7=
EXTT8=
EXTT9=
EXTT10=
PLAYORDER=
